<svg id="2dc0044f-bdf9-4cc8-b34b-592b343aee81" data-name="Layer 1" xmlns="http://www.w3.org/2000/svg" viewBox="0 0 131.54 108.37"><title>base--2</title><path d="M131.53,31.55c0-.08,0-.16,0-.25a5.34,5.34,0,0,0-3.13-4.9L76.35,2.29a24.72,24.72,0,0,0-20.77,0l-.17.08L43.41,9l-.07.05,0,0-.1.07-.33.27-.12.13a2.36,2.36,0,0,0-.26.36l-.07.11a2.44,2.44,0,0,0-.21.53s0,.07,0,.11a3.4,3.4,0,0,0-.06.46s0,0,0,.08V23.71L22.2,34.26l-.09.06-.07,0a.71.71,0,0,1-.09.07,2.69,2.69,0,0,0-.32.27l-.12.12a2.27,2.27,0,0,0-.29.4l0,.06a2.66,2.66,0,0,0-.21.53.89.89,0,0,0,0,.14,3.32,3.32,0,0,0-.06.44s0,.06,0,.09V48.76L1.37,59.09l-.07.06a2.32,2.32,0,0,0-.44.31l-.07.06A2.84,2.84,0,0,0,.42,60a.83.83,0,0,0-.07.13,2.25,2.25,0,0,0-.19.45l0,.14a2.79,2.79,0,0,0-.07.58L0,72A13,13,0,0,0,7.46,83.72l44.11,21.52a33.63,33.63,0,0,0,28.38,0L124,83.81a13,13,0,0,0,7.5-11.75V31.73C131.54,31.67,131.53,31.61,131.53,31.55ZM57.76,6.79a19.67,19.67,0,0,1,16.49,0l52.06,24.1a.38.38,0,0,1,.23.37.39.39,0,0,1-.15.34h0L108,39.35,50,11.08ZM25.87,40.47,84.34,68.92c0,3.2.09,6.45.09,8.83l-58.56-29Zm60.9,24.07L28.89,36.38,44.66,28,102.41,56.3Zm18.69-20.87c.05,3.11.08,6.27.08,8.6L47.12,23.66V15.22Zm-82,9.4L81.22,81.73,66,89.39,8.05,61.21ZM9.61,79.2A8,8,0,0,1,5,72l0-6.71L63.41,93.71,63.35,95v8.27a28.45,28.45,0,0,1-9.63-2.53Zm112.29.09L77.81,100.7a28.91,28.91,0,0,1-9.46,2.54V95.15l.06-1.4L87.94,84a.91.91,0,0,0,.13-.08l.23-.14.17-.15.14-.11a2.06,2.06,0,0,0,.67-1.34s0-.1,0-.15c.21-1.47.19-4.72,0-13.14L109.1,58.43l.11-.07.22-.15.17-.14s.09-.06.12-.1a2.08,2.08,0,0,0,.69-1.42s0,0,0-.08c.2-1.45.18-4.63,0-12.73L126.54,37V72.06A8,8,0,0,1,121.9,79.29Z" style="fill:#2137ce"/></svg>