<svg id="64fc6763-02fa-4c56-abe6-8df1abce90e8" data-name="Layer 1" xmlns="http://www.w3.org/2000/svg" viewBox="0 0 142.93 83.47"><title>base--3</title><path d="M139.51,28.76,82.78,2.5a26.88,26.88,0,0,0-22.63,0L3.42,28.76a5.89,5.89,0,0,0,0,10.7l2,.94V52.63H3.82L2.94,70.07a5.24,5.24,0,1,0,10.48,0l-.88-17.44H10.91v-9.7l9.21,4.26v8.34a10.87,10.87,0,0,0,6.28,9.82L60.15,81a26.86,26.86,0,0,0,22.63,0L117,65.13a10.86,10.86,0,0,0,6.28-9.83V47l16.23-7.51a5.89,5.89,0,0,0,0-10.7ZM117.83,55.3a5.38,5.38,0,0,1-3.12,4.88L80.49,76a21.41,21.41,0,0,1-18,0L28.69,60.41a5.41,5.41,0,0,1-3.12-4.88V49.72l34.58,16a26.86,26.86,0,0,0,22.63,0L117.83,49.5Zm19.39-20.78L80.49,60.78a21.41,21.41,0,0,1-18,0L5.71,34.52a.41.41,0,0,1-.26-.41.4.4,0,0,1,.26-.4L62.44,7.44a21.46,21.46,0,0,1,18,0l56.73,26.27a.4.4,0,0,1,.26.4A.42.42,0,0,1,137.22,34.52Z" style="fill:#f9c430"/></svg>