<svg id="aab53510-3535-4cd8-a01a-10d9b551e5bf" data-name="Layer 1" xmlns="http://www.w3.org/2000/svg" viewBox="0 0 200 200"><title>logo</title><rect width="200" height="200" style="fill:#ffc601"/><path d="M38,163.57l7.86,2.28v1.86l-5.39,1.49,5.39,1.49v1.86L38,174.83V172.9l5.3-1.36L38,170.12v-1.84l5.3-1.43L38,165.5Z" style="fill:#2137ce"/><path d="M45.88,156.81V162H38v-5.09h1.47v3.25h1.6V157.1h1.47v3.07h1.83v-3.36Z" style="fill:#2137ce"/><path d="M45.37,150.38a3.38,3.38,0,0,1,.65,2.13,4.3,4.3,0,0,1-1.19,2.8l-1.34-.92a3.24,3.24,0,0,0,1-2c0-.59-.29-1.05-.81-1.05s-.74.59-.87.93-.33.93-.44,1.19a3,3,0,0,1-.57.94,2,2,0,0,1-1.52.61,2.21,2.21,0,0,1-1.72-.82,3.23,3.23,0,0,1-.63-2.07,3.93,3.93,0,0,1,1-2.5l1.29.79a2.75,2.75,0,0,0-.8,1.76c0,.59.23,1,.71,1s.66-.44.8-.8.34-.92.44-1.17a3.27,3.27,0,0,1,.64-1.1,2.06,2.06,0,0,1,1.52-.61A2.39,2.39,0,0,1,45.37,150.38Z" style="fill:#2137ce"/><path d="M39.47,142.25v2h6.41v1.85H39.47v2H38v-5.91Z" style="fill:#2137ce"/><path d="M58.13,169.69a3.38,3.38,0,0,1,.65,2.13,4.21,4.21,0,0,1-1.19,2.79l-1.34-.91a3.24,3.24,0,0,0,1-2c0-.59-.28-1.05-.81-1.05s-.74.58-.86.93-.34.93-.45,1.19a3.09,3.09,0,0,1-.57.94,1.93,1.93,0,0,1-1.51.61,2.18,2.18,0,0,1-1.72-.82,3.17,3.17,0,0,1-.63-2.07,3.87,3.87,0,0,1,1-2.5l1.28.79a2.71,2.71,0,0,0-.79,1.75c0,.6.22,1,.7,1s.66-.45.8-.8.34-.92.45-1.17a3.21,3.21,0,0,1,.63-1.1,2.06,2.06,0,0,1,1.52-.61A2.37,2.37,0,0,1,58.13,169.69Z" style="fill:#2137ce"/><path d="M58.64,159.94v2l-1.58.55v2.81l1.58.56v1.91l-7.87-3V162.9Zm-3,3-2.82,1,2.82,1Z" style="fill:#2137ce"/><path d="M57.71,152.14A3.73,3.73,0,0,1,58.78,155a4.06,4.06,0,1,1-7.23-2.7l1.53.57a3,3,0,0,0-.82,2,2.42,2.42,0,0,0,4.84,0,2.87,2.87,0,0,0-.83-2.12Z" style="fill:#2137ce"/><path d="M58.64,144.17v2.14l-3,1.66v.58h3v1.84H50.78v-2.82a3.42,3.42,0,0,1,.56-2.08,2.38,2.38,0,0,1,4,.67Zm-6.23,2.71a1.54,1.54,0,0,0-.21,1v.73h2v-.73a1.48,1.48,0,0,0-.22-1,.87.87,0,0,0-.79-.4A.89.89,0,0,0,52.41,146.88Z" style="fill:#2137ce"/><path d="M58.64,135.19v2l-1.58.56v2.8l1.58.56V143l-7.87-3v-1.91Zm-3,3-2.82,1,2.82,1Z" style="fill:#2137ce"/><path d="M58.64,124.67v1.81l-5.35.31v0l5.35,1.69V130l-5.35,1.7v0l5.35.28v1.82l-7.86-.6v-2.32L56,129.23v0l-5.17-1.62v-2.34Z" style="fill:#2137ce"/><path d="M58.64,117.35v5.2H50.78v-5.09h1.47v3.26h1.61v-3.08h1.47v3.08h1.82v-3.37Z" style="fill:#2137ce"/><path d="M58.64,108.12V110l-5.33,3.45s.94,0,1.78,0h3.55v1.8H50.78v-2l5.29-3.38s-.89,0-1.72,0H50.78v-1.8Z" style="fill:#2137ce"/><path d="M52.24,100.62v2h6.4v1.85h-6.4v2H50.78v-5.91Z" style="fill:#2137ce"/><path d="M58.78,95.38a4.07,4.07,0,1,1-4.06-4.17A3.93,3.93,0,0,1,58.78,95.38Zm-6.55,0a2.46,2.46,0,1,0,2.45-2.3A2.27,2.27,0,0,0,52.23,95.38Z" style="fill:#2137ce"/><path d="M71.34,167.23v1.85H68.05v3.15h3.29v1.85H63.48v-1.85h3v-3.15h-3v-1.85Z" style="fill:#2137ce"/><path d="M71.48,161.09a4.07,4.07,0,1,1-4.06-4.17A3.92,3.92,0,0,1,71.48,161.09Zm-6.55,0a2.46,2.46,0,1,0,2.45-2.3A2.26,2.26,0,0,0,64.93,161.09Z" style="fill:#2137ce"/><path d="M71.34,146.15V148l-5.35.31v0L71.34,150v1.46L66,153.14v0l5.35.29v1.81l-7.86-.59v-2.33l5.17-1.64v0l-5.17-1.62v-2.34Z" style="fill:#2137ce"/><path d="M71.34,138.84V144H63.48v-5.09H65v3.26h1.61v-3.08H68v3.08h1.82v-3.36Z" style="fill:#2137ce"/><path d="M71.34,127.41v2.14l-3,1.66v.58h3v1.84H63.48v-2.82a3.42,3.42,0,0,1,.56-2.08,2.38,2.38,0,0,1,4,.67Zm-6.23,2.71a1.54,1.54,0,0,0-.21.95v.73h2v-.73a1.48,1.48,0,0,0-.22-.95.87.87,0,0,0-.79-.4A.89.89,0,0,0,65.11,130.12Z" style="fill:#2137ce"/><path d="M68.06,119.37a3.35,3.35,0,0,1,2.47.75,3.3,3.3,0,0,1,.94,2.54,5.73,5.73,0,0,1-.94,2.55,6.36,6.36,0,0,1-2.47.74H63.48V124.1h4.58a2,2,0,0,0,1.31-.31,1.55,1.55,0,0,0,0-2.26,2,2,0,0,0-1.31-.3H63.48v-1.86Z" style="fill:#2137ce"/><path d="M71.34,109.93v1.89L66,115.28s.95,0,1.78,0h3.55V117H63.48v-2l5.29-3.37s-.89,0-1.72,0H63.48v-1.8Z" style="fill:#2137ce"/><path d="M174.57,63a34.56,34.56,0,0,0-65.92-14.5h-16V63.71H79.4V174.08h28.91l.2-2.14,0-.24a13,13,0,0,1,12.81-11.08h12.22a11.14,11.14,0,1,0-.05-22.27,6.47,6.47,0,0,1,0-12.94H145a16.26,16.26,0,0,0,16.25-16.24v-.09A16.27,16.27,0,0,0,153.09,95a34.61,34.61,0,0,0,21.48-32ZM84.13,165.48V83.64H130.2Zm13.31-97V53.26h10V78.9H84.13V68.45Zm59,40.64v.09A11.53,11.53,0,0,1,145,120.68H133.53a11.21,11.21,0,0,0,0,22.41,6.4,6.4,0,1,1,.05,12.8H121.36a17.78,17.78,0,0,0-17.17,13.46H87.4l40.4-71.78H145A11.54,11.54,0,0,1,156.47,109.09ZM140.72,92.82H130.46L138.3,78.9H112.13V55.06a12.34,12.34,0,0,1,1.14-5.18c.15-.32.29-.59.39-.79a29.81,29.81,0,1,1,27.06,43.73Z" style="fill:#2137ce"/></svg>