<svg id="54cfd114-d30d-40fb-acc7-1c422c9b3220" data-name="Layer 1" xmlns="http://www.w3.org/2000/svg" viewBox="0 0 151.14 161.88"><title>logo-nobg</title><path d="M.1,149.42,8.8,152V154l-6,1.65,6,1.65v2.06L.1,161.88v-2.13L6,158.24.1,156.67v-2L6,153.05.1,151.55Z" style="fill:#2137ce"/><path d="M8.8,142v5.75H.1v-5.64H1.73v3.61H3.5v-3.41H5.13v3.41h2V142Z" style="fill:#2137ce"/><path d="M8.23,134.84A3.68,3.68,0,0,1,9,137.19a4.73,4.73,0,0,1-1.31,3.09l-1.49-1A3.57,3.57,0,0,0,7.25,137c0-.65-.32-1.15-.9-1.15s-.82.64-1,1-.36,1-.49,1.32a3.24,3.24,0,0,1-.63,1,2.12,2.12,0,0,1-1.67.68A2.46,2.46,0,0,1,.69,139,3.62,3.62,0,0,1,0,136.7a4.28,4.28,0,0,1,1.07-2.76l1.43.87a3,3,0,0,0-.89,1.94c0,.66.26,1.14.78,1.14s.74-.49.89-.89.38-1,.49-1.29a3.49,3.49,0,0,1,.7-1.21,2.28,2.28,0,0,1,1.68-.68A2.63,2.63,0,0,1,8.23,134.84Z" style="fill:#2137ce"/><path d="M1.71,125.85v2.24H8.8v2H1.71v2.24H.1v-6.52Z" style="fill:#2137ce"/><path d="M22.35,156.19a3.73,3.73,0,0,1,.72,2.36,4.76,4.76,0,0,1-1.31,3.09l-1.49-1a3.6,3.6,0,0,0,1.09-2.27c0-.65-.31-1.16-.89-1.16s-.82.64-1,1-.36,1-.49,1.33a3.35,3.35,0,0,1-.63,1,2.14,2.14,0,0,1-1.68.68,2.44,2.44,0,0,1-1.9-.91,3.51,3.51,0,0,1-.69-2.29,4.28,4.28,0,0,1,1.07-2.76l1.42.87a3,3,0,0,0-.88,1.94c0,.65.25,1.13.78,1.13s.73-.49.88-.88.38-1,.5-1.3a3.33,3.33,0,0,1,.7-1.21,2.32,2.32,0,0,1,1.68-.68A2.63,2.63,0,0,1,22.35,156.19Z" style="fill:#2137ce"/><path d="M22.92,145.41v2.22l-1.76.61v3.11l1.76.61v2.12l-8.71-3.28v-2.11Zm-3.35,3.3-3.12,1.08,3.12,1.09Z" style="fill:#2137ce"/><path d="M21.88,136.79a4.09,4.09,0,0,1,1.19,3.13,4.32,4.32,0,0,1-4.49,4.57,4.32,4.32,0,0,1-4.49-4.57,4.26,4.26,0,0,1,1-3l1.69.63a3.33,3.33,0,0,0-.9,2.24,2.5,2.5,0,0,0,2.68,2.61,2.52,2.52,0,0,0,2.67-2.61,3.21,3.21,0,0,0-.92-2.34Z" style="fill:#2137ce"/><path d="M22.92,128v2.37l-3.33,1.82v.65h3.33v2h-8.7v-3.13a3.75,3.75,0,0,1,.62-2.29,2.4,2.4,0,0,1,2-1,2.43,2.43,0,0,1,2.49,1.7ZM16,131a1.66,1.66,0,0,0-.23,1v.81H18V132a1.73,1.73,0,0,0-.23-1A1.1,1.1,0,0,0,16,131Z" style="fill:#2137ce"/><path d="M22.92,118v2.22l-1.76.61V124l1.76.61v2.12l-8.71-3.28v-2.11Zm-3.35,3.3-3.12,1.09,3.12,1.08Z" style="fill:#2137ce"/><path d="M22.92,106.4v2l-5.93.34v0l5.93,1.86v1.61L17,114.12v0l5.93.32v2l-8.7-.66v-2.57l5.72-1.81v0l-5.72-1.79V107Z" style="fill:#2137ce"/><path d="M22.92,98.3v5.75h-8.7V98.42h1.62V102h1.78v-3.4h1.63V102h2V98.3Z" style="fill:#2137ce"/><path d="M22.92,88.09v2.09L17,94s1,0,2,0h3.94v2h-8.7V93.77L20.07,90s-1,0-1.91,0H14.22v-2Z" style="fill:#2137ce"/><path d="M15.83,79.8V82h7.09v2H15.83v2.25H14.22V79.8Z" style="fill:#2137ce"/><path d="M23.07,74a4.34,4.34,0,0,1-4.49,4.62,4.62,4.62,0,0,1,0-9.23A4.33,4.33,0,0,1,23.07,74Zm-7.25,0a2.51,2.51,0,0,0,2.71,2.55,2.55,2.55,0,1,0,0-5.09A2.51,2.51,0,0,0,15.82,74Z" style="fill:#2137ce"/><path d="M37,153.47v2H33.32V159H37v2.05H28.27V159h3.36v-3.49H28.27v-2Z" style="fill:#2137ce"/><path d="M37.11,146.68a4.33,4.33,0,0,1-4.48,4.61,4.61,4.61,0,0,1,0-9.22A4.32,4.32,0,0,1,37.11,146.68Zm-7.24,0a2.5,2.5,0,0,0,2.71,2.54,2.55,2.55,0,1,0,0-5.09A2.52,2.52,0,0,0,29.87,146.68Z" style="fill:#2137ce"/><path d="M37,130.16v2L31,132.5v0L37,134.39V136L31,137.89v0l5.92.32v2l-8.69-.65V137L34,135.2v0l-5.72-1.79V130.8Z" style="fill:#2137ce"/><path d="M37,122.07v5.74H28.27v-5.63h1.62v3.6h1.78v-3.4h1.62v3.4h2v-3.71Z" style="fill:#2137ce"/><path d="M37,109.43v2.37l-3.32,1.83v.64H37v2H28.27v-3.13a3.82,3.82,0,0,1,.61-2.29,2.63,2.63,0,0,1,4.49.74Zm-6.89,3a1.66,1.66,0,0,0-.23,1v.81h2.23v-.81a1.66,1.66,0,0,0-.24-1A1,1,0,0,0,31,112,1,1,0,0,0,30.07,112.43Z" style="fill:#2137ce"/><path d="M33.33,100.53a3.77,3.77,0,0,1,2.74.83,3.71,3.71,0,0,1,1,2.81,6.38,6.38,0,0,1-1,2.83,7.07,7.07,0,0,1-2.74.82H28.27v-2.06h5.06a2.19,2.19,0,0,0,1.45-.34,1.71,1.71,0,0,0,0-2.49,2.19,2.19,0,0,0-1.45-.34H28.27v-2.06Z" style="fill:#2137ce"/><path d="M37,90.09v2.1L31.06,96s1.05,0,2,0H37v2H28.27V95.78l5.84-3.73s-1,0-1.9,0H28.27v-2Z" style="fill:#2137ce"/><path d="M151.14,38.22a38.22,38.22,0,0,0-72.91-16H60.59V39H45.87V161.05h32l.23-2.37a1.85,1.85,0,0,1,0-.26,14.39,14.39,0,0,1,14.18-12.26H105.8a12.32,12.32,0,1,0,0-24.64,7.15,7.15,0,0,1,0-14.3h12.63a18,18,0,0,0,18-18v-.1a18,18,0,0,0-9-15.56,38.29,38.29,0,0,0,23.76-35.38Zm-100,113.32V61h51ZM65.83,44.21V27.42h11V55.78H51.11V44.21Zm65.29,44.95v.1A12.75,12.75,0,0,1,118.38,102H105.75a12.4,12.4,0,0,0,0,24.79,7.08,7.08,0,1,1,0,14.15H92.29a19.68,19.68,0,0,0-19,14.89H54.72l44.69-79.4,19,0A12.75,12.75,0,0,1,131.12,89.16Zm-17.42-18H102.36L111,55.78H82.08V29.4a13.64,13.64,0,0,1,1.26-5.73c.16-.35.31-.65.43-.87A33,33,0,1,1,113.7,71.17Z" style="fill:#2137ce"/></svg>