<svg id="e94f3b6c-f00d-4e63-814b-69395c2e203b" data-name="Layer 1" xmlns="http://www.w3.org/2000/svg" viewBox="0 0 32.57 32.57"><title>social--linkedin</title><path d="M33,7.46V27.82a6.13,6.13,0,0,1-6.11,6.11H6.53a5.88,5.88,0,0,1-4.31-1.79,5.89,5.89,0,0,1-1.8-4.32V7.46a5.85,5.85,0,0,1,1.8-4.31A5.84,5.84,0,0,1,6.53,1.36H26.89A5.84,5.84,0,0,1,31.2,3.15,5.85,5.85,0,0,1,33,7.46ZM10.67,9.37A2.51,2.51,0,0,0,9.9,7.55a2.7,2.7,0,0,0-2-.72,2.8,2.8,0,0,0-2,.72,2.38,2.38,0,0,0-.78,1.82,2.42,2.42,0,0,0,.76,1.82,2.71,2.71,0,0,0,2,.73h0a2.82,2.82,0,0,0,2-.73A2.43,2.43,0,0,0,10.67,9.37ZM5.45,28.63h4.9V13.91H5.45Zm17.62,0H28V20.19a7,7,0,0,0-1.55-4.94,5.29,5.29,0,0,0-4.09-1.68,4.93,4.93,0,0,0-4.43,2.48h0V13.91H13q.06,1.39,0,14.72h4.9V20.4a3.5,3.5,0,0,1,.15-1.19A3.34,3.34,0,0,1,19,18a2.4,2.4,0,0,1,1.57-.52q2.46,0,2.46,3.33Z" transform="translate(-0.42 -1.36)" style="fill:#333"/></svg>