<svg id="94523de4-5062-40f6-9db8-dd94a2544d55" data-name="Layer 1" xmlns="http://www.w3.org/2000/svg" viewBox="0 0 32.57 32.57"><title>social--instagram</title><path d="M33,17.64q0,4.86-.11,6.73a9.94,9.94,0,0,1-2.63,6.82,10,10,0,0,1-6.83,2.63q-1.86.1-6.72.11T10,33.82a10,10,0,0,1-6.83-2.63A9.94,9.94,0,0,1,.53,24.37Q.43,22.5.42,17.64c0-3.23,0-5.48.11-6.72A10,10,0,0,1,3.16,4.09,10,10,0,0,1,10,1.46q1.86-.1,6.72-.1t6.72.1a10,10,0,0,1,6.83,2.63,10,10,0,0,1,2.63,6.83C33,12.16,33,14.41,33,17.64ZM18.33,4.27H12.85c-.51,0-1.19,0-2,.07a15.35,15.35,0,0,0-2.18.21,8.54,8.54,0,0,0-1.52.39A5.56,5.56,0,0,0,4,8a7.65,7.65,0,0,0-.39,1.51,16.78,16.78,0,0,0-.22,2.19q0,1.28-.06,2c0,.51,0,1.26,0,2.24s0,1.52,0,1.62,0,.64,0,1.62,0,1.73,0,2.24,0,1.19.06,2.05a16.79,16.79,0,0,0,.22,2.18A7.76,7.76,0,0,0,4,27.25a5.43,5.43,0,0,0,1.23,1.87A5.51,5.51,0,0,0,7.1,30.34a8.48,8.48,0,0,0,1.52.4A19,19,0,0,0,10.8,31c.86,0,1.54.06,2,.06h7.72c.51,0,1.19,0,2.05-.06a19,19,0,0,0,2.18-.21,8.48,8.48,0,0,0,1.52-.4,5.61,5.61,0,0,0,1.86-1.22,5.43,5.43,0,0,0,1.23-1.87,7.76,7.76,0,0,0,.39-1.52A16.79,16.79,0,0,0,30,23.55c0-.86.05-1.54.06-2.05s0-1.25,0-2.24,0-1.52,0-1.62,0-.64,0-1.62,0-1.73,0-2.24,0-1.19-.06-2a16.78,16.78,0,0,0-.22-2.19A7.65,7.65,0,0,0,29.41,8a5.43,5.43,0,0,0-1.23-1.87,5.49,5.49,0,0,0-1.86-1.23,8.54,8.54,0,0,0-1.52-.39,15.35,15.35,0,0,0-2.18-.21c-.86,0-1.54-.06-2.05-.07Zm4.3,7.46a8,8,0,0,1,2.43,5.91A8.31,8.31,0,0,1,16.71,26a8.33,8.33,0,0,1-8.36-8.36,8.33,8.33,0,0,1,8.36-8.35A8.05,8.05,0,0,1,22.63,11.73Zm-2.08,9.75a5.43,5.43,0,0,0,0-7.68,5.43,5.43,0,0,0-7.68,0,5.43,5.43,0,0,0,0,7.68,5.43,5.43,0,0,0,7.68,0ZM26.78,7.57a2,2,0,0,1,0,2.76,1.94,1.94,0,0,1-2.75,0,1.93,1.93,0,0,1,0-2.76,1.94,1.94,0,0,1,2.75,0Z" transform="translate(-0.42 -1.36)" style="fill:#333"/></svg>