<svg id="eaee307c-137e-4ad2-8434-41e70f7ba432" data-name="Layer 1" xmlns="http://www.w3.org/2000/svg" viewBox="0 0 33.42 27.14"><title>social--twitter</title><path d="M33.42,7.29A14.33,14.33,0,0,1,30,10.84c0,.19,0,.49,0,.89a19.38,19.38,0,0,1-.81,5.5,19.82,19.82,0,0,1-2.45,5.27A20.58,20.58,0,0,1,22.84,27a17.31,17.31,0,0,1-5.47,3.1,20.06,20.06,0,0,1-6.85,1.15A19,19,0,0,1,0,28.14a14,14,0,0,0,1.65.08,13.43,13.43,0,0,0,8.51-2.92,6.88,6.88,0,0,1-6.41-4.75,8.79,8.79,0,0,0,1.3.1,6.89,6.89,0,0,0,1.8-.23,6.72,6.72,0,0,1-3.93-2.36A6.64,6.64,0,0,1,1.36,13.7v-.09a6.71,6.71,0,0,0,3.09.87A6.78,6.78,0,0,1,2.23,12a6.86,6.86,0,0,1,.1-6.72,19.37,19.37,0,0,0,6.25,5.06,19,19,0,0,0,7.88,2.11,7.18,7.18,0,0,1-.17-1.57,6.61,6.61,0,0,1,2-4.85,6.87,6.87,0,0,1,9.85.16,13.22,13.22,0,0,0,4.35-1.65,6.67,6.67,0,0,1-3,3.77A13.44,13.44,0,0,0,33.42,7.29Z" transform="translate(0 -4.07)" style="fill:#333"/></svg>