<svg data-name="Layer 1" xmlns="http://www.w3.org/2000/svg" viewBox="0 0 140.8 92.92"><path d="M140.73 46.46a5.74 5.74 0 0 0-3.37-5.26l-2.53-1.2 2.53-1.17a5.82 5.82 0 0 0 2-1.55 5.82 5.82 0 0 0-1.95-9.07l-18.52-8.57-.06.09L81.51 2.46a26.48 26.48 0 0 0-22.29 0L22 19.7 3.44 28.23a5.82 5.82 0 0 0-2 1.55 5.82 5.82 0 0 0 2 9.07L5.9 40l-2.54 1.2a5.81 5.81 0 0 0 0 10.53L5.9 52.9l-2.54 1.17a5.81 5.81 0 0 0 0 10.53l55.86 25.87a26.57 26.57 0 0 0 22.29 0l55.85-25.87a5.8 5.8 0 0 0 0-10.53l-2.53-1.17 2.53-1.17a5.75 5.75 0 0 0 3.37-5.27zM121 26.64l14.15 6.55a.4.4 0 0 1 .25.4.39.39 0 0 1-.06.23l-.12.08L121 40.46a16.18 16.18 0 0 1 0-13.82zM61.47 7.33a21.14 21.14 0 0 1 17.78 0l36.84 17a21.58 21.58 0 0 0 .07 18.38L79.25 59.85a21.17 21.17 0 0 1-17.78 0l-36.78-17a21.44 21.44 0 0 0 2.12-9.31 21.52 21.52 0 0 0-2-9.17zM5.62 33.19l14.27-6.61a16.22 16.22 0 0 1 0 13.88L5.69 33.9a.41.41 0 0 1-.25-.4.42.42 0 0 1 .06-.23zm129.49 25.75a.4.4 0 0 1 .25.4.38.38 0 0 1-.25.39L79.25 85.6a21.17 21.17 0 0 1-17.78 0L5.62 59.73a.39.39 0 0 1-.26-.39.4.4 0 0 1 .26-.4l6.66-3.08 46.94 21.73a26.48 26.48 0 0 0 22.29 0l46.94-21.73zm0-12.08L79.25 72.72a21.09 21.09 0 0 1-17.78 0L5.62 46.86a.4.4 0 0 1-.26-.4.39.39 0 0 1 .26-.39L12.28 43l46.94 21.71a26.48 26.48 0 0 0 22.29 0L128.45 43l6.66 3.09a.38.38 0 0 1 .25.39.4.4 0 0 1-.25.38z" fill="#e83f18"/><path d="M69.63 36.24v8.64c-2.28-.45-3.51-1.93-3.41-4h-5.63c-.1 5 3.75 8.88 9 9.18v4.34H72v-4.34a12.1 12.1 0 0 0 4.78-1.33 9.41 9.41 0 0 0 4.74-8.15 8.24 8.24 0 0 0-4-7.2A25 25 0 0 0 72 31v-8.43c2.12.34 3.35 1.58 3.4 3.4h5.58c-.2-4.84-3.26-7.8-9-8.64v-3.5h-2.35v3.5c-5.43.4-9.09 4.1-9.09 9.28 0 4.74 2.46 7.39 9.09 9.63zm2.32.89c2.61.84 3.6 1.92 3.6 3.8a3.79 3.79 0 0 1-3.6 4zm-2.32-14.56v7.6a9.87 9.87 0 0 1-2.08-1 3.65 3.65 0 0 1-1.38-2.86c0-2.07 1.28-3.4 3.46-3.74z" fill="#e83f18"/></svg>