<svg data-name="Layer 1" xmlns="http://www.w3.org/2000/svg" viewBox="0 0 142.93 83.47"><path d="M139.51 28.76L82.78 2.5a26.88 26.88 0 0 0-22.63 0L3.42 28.76a5.89 5.89 0 0 0 0 10.7l2 .94v12.23h-1.6l-.88 17.44a5.24 5.24 0 1 0 10.48 0l-.88-17.44h-1.63v-9.7l9.21 4.26v8.34a10.87 10.87 0 0 0 6.28 9.82L60.15 81a26.86 26.86 0 0 0 22.63 0L117 65.13a10.86 10.86 0 0 0 6.28-9.83V47l16.23-7.51a5.89 5.89 0 0 0 0-10.7zM117.83 55.3a5.38 5.38 0 0 1-3.12 4.88L80.49 76a21.41 21.41 0 0 1-18 0l-33.8-15.59a5.41 5.41 0 0 1-3.12-4.88v-5.81l34.58 16a26.86 26.86 0 0 0 22.63 0l35.05-16.22zm19.39-20.78L80.49 60.78a21.41 21.41 0 0 1-18 0L5.71 34.52a.41.41 0 0 1-.26-.41.4.4 0 0 1 .26-.4L62.44 7.44a21.46 21.46 0 0 1 18 0l56.73 26.27a.4.4 0 0 1 .26.4.42.42 0 0 1-.21.41z" fill="#f9c430"/></svg>