<svg data-name="Layer 1" xmlns="http://www.w3.org/2000/svg" viewBox="0 0 151.14 161.88"><path d="M.1 149.42L8.8 152v2l-6 1.65 6 1.65v2.06l-8.7 2.52v-2.13l5.9-1.51-5.9-1.57v-2l5.9-1.62-5.9-1.5zM8.8 142v5.75H.1v-5.64h1.63v3.61H3.5v-3.41h1.63v3.41h2V142zM8.23 134.84a3.68 3.68 0 0 1 .77 2.35 4.73 4.73 0 0 1-1.31 3.09l-1.49-1A3.57 3.57 0 0 0 7.25 137c0-.65-.32-1.15-.9-1.15s-.82.64-1 1-.36 1-.49 1.32a3.24 3.24 0 0 1-.63 1 2.12 2.12 0 0 1-1.67.68A2.46 2.46 0 0 1 .69 139a3.62 3.62 0 0 1-.69-2.3 4.28 4.28 0 0 1 1.07-2.76l1.43.87a3 3 0 0 0-.89 1.94c0 .66.26 1.14.78 1.14s.74-.49.89-.89.38-1 .49-1.29a3.49 3.49 0 0 1 .7-1.21 2.28 2.28 0 0 1 1.68-.68 2.63 2.63 0 0 1 2.08 1.02zM1.71 125.85v2.24H8.8v2H1.71v2.24H.1v-6.52zM22.35 156.19a3.73 3.73 0 0 1 .72 2.36 4.76 4.76 0 0 1-1.31 3.09l-1.49-1a3.6 3.6 0 0 0 1.09-2.27c0-.65-.31-1.16-.89-1.16s-.82.64-1 1-.36 1-.49 1.33a3.35 3.35 0 0 1-.63 1 2.14 2.14 0 0 1-1.68.68 2.44 2.44 0 0 1-1.9-.91 3.51 3.51 0 0 1-.69-2.29 4.28 4.28 0 0 1 1.07-2.76l1.42.87a3 3 0 0 0-.88 1.94c0 .65.25 1.13.78 1.13s.73-.49.88-.88.38-1 .5-1.3a3.33 3.33 0 0 1 .7-1.21 2.32 2.32 0 0 1 1.68-.68 2.63 2.63 0 0 1 2.12 1.06zM22.92 145.41v2.22l-1.76.61v3.11l1.76.61v2.12l-8.71-3.28v-2.11zm-3.35 3.3l-3.12 1.08 3.12 1.09zM21.88 136.79a4.09 4.09 0 0 1 1.19 3.13 4.32 4.32 0 0 1-4.49 4.57 4.32 4.32 0 0 1-4.49-4.57 4.26 4.26 0 0 1 1-3l1.69.63a3.33 3.33 0 0 0-.9 2.24 2.5 2.5 0 0 0 2.68 2.61 2.52 2.52 0 0 0 2.67-2.61 3.21 3.21 0 0 0-.92-2.34zM22.92 128v2.37l-3.33 1.82v.65h3.33v2h-8.7v-3.13a3.75 3.75 0 0 1 .62-2.29 2.4 2.4 0 0 1 2-1 2.43 2.43 0 0 1 2.49 1.7zM16 131a1.66 1.66 0 0 0-.23 1v.81H18V132a1.73 1.73 0 0 0-.23-1 1.1 1.1 0 0 0-1.77 0zM22.92 118v2.22l-1.76.61V124l1.76.61v2.12l-8.71-3.28v-2.11zm-3.35 3.3l-3.12 1.09 3.12 1.08zM22.92 106.4v2l-5.93.34 5.93 1.86v1.61L17 114.12l5.93.32v2l-8.7-.66v-2.57l5.72-1.81-5.72-1.79V107zM22.92 98.3v5.75h-8.7v-5.63h1.62V102h1.78v-3.4h1.63v3.4h2v-3.7zM22.92 88.09v2.09L17 94H22.94v2h-8.7v-2.23L20.07 90h-5.85v-2zM15.83 79.8V82h7.09v2h-7.09v2.25h-1.61V79.8zM23.07 74a4.34 4.34 0 0 1-4.49 4.62 4.62 4.62 0 0 1 0-9.23A4.33 4.33 0 0 1 23.07 74zm-7.25 0a2.51 2.51 0 0 0 2.71 2.55 2.55 2.55 0 1 0 0-5.09A2.51 2.51 0 0 0 15.82 74zM37 153.47v2h-3.68V159H37v2.05h-8.73V159h3.36v-3.49h-3.36v-2zM37.11 146.68a4.33 4.33 0 0 1-4.48 4.61 4.61 4.61 0 0 1 0-9.22 4.32 4.32 0 0 1 4.48 4.61zm-7.24 0a2.5 2.5 0 0 0 2.71 2.54 2.55 2.55 0 1 0 0-5.09 2.52 2.52 0 0 0-2.71 2.55zM37 130.16v2l-6 .34 6 1.89V136l-6 1.89 5.92.32v2l-8.69-.65V137l5.77-1.8-5.72-1.79v-2.61zM37 122.07v5.74h-8.73v-5.63h1.62v3.6h1.78v-3.4h1.62v3.4h2v-3.71zM37 109.43v2.37l-3.32 1.83v.64H37v2h-8.73v-3.13a3.82 3.82 0 0 1 .61-2.29 2.63 2.63 0 0 1 4.49.74zm-6.89 3a1.66 1.66 0 0 0-.23 1v.81h2.23v-.81a1.66 1.66 0 0 0-.24-1A1 1 0 0 0 31 112a1 1 0 0 0-.93.43zM33.33 100.53a3.77 3.77 0 0 1 2.74.83 3.71 3.71 0 0 1 1 2.81 6.38 6.38 0 0 1-1 2.83 7.07 7.07 0 0 1-2.74.82h-5.06v-2.06h5.06a2.19 2.19 0 0 0 1.45-.34 1.71 1.71 0 0 0 0-2.49 2.19 2.19 0 0 0-1.45-.34h-5.06v-2.06zM37 90.09v2.1L31.06 96H37v2h-8.73v-2.22l5.84-3.73h-5.84v-2zM151.14 38.22a38.22 38.22 0 0 0-72.91-16H60.59V39H45.87v122.05h32l.23-2.37a1.85 1.85 0 0 1 0-.26 14.39 14.39 0 0 1 14.18-12.26h13.52a12.32 12.32 0 1 0 0-24.64 7.15 7.15 0 0 1 0-14.3h12.63a18 18 0 0 0 18-18v-.1a18 18 0 0 0-9-15.56 38.29 38.29 0 0 0 23.76-35.38zm-100 113.32V61h51zM65.83 44.21V27.42h11v28.36H51.11V44.21zm65.29 44.95v.1A12.75 12.75 0 0 1 118.38 102h-12.63a12.4 12.4 0 0 0 0 24.79 7.08 7.08 0 1 1 0 14.15H92.29a19.68 19.68 0 0 0-19 14.89H54.72l44.69-79.4h19a12.75 12.75 0 0 1 12.71 12.73zm-17.42-18h-11.34L111 55.78H82.08V29.4a13.64 13.64 0 0 1 1.26-5.73c.16-.35.31-.65.43-.87a33 33 0 1 1 29.93 48.37z" fill="#2137ce"/></svg>