<svg data-name="Layer 1" xmlns="http://www.w3.org/2000/svg" viewBox="0 0 18.57 18.57"><path d="M18.57 17.14a1.38 1.38 0 0 1-.42 1 1.4 1.4 0 0 1-1 .42 1.33 1.33 0 0 1-1-.42l-3.83-3.82a7.66 7.66 0 0 1-4.45 1.38 7.65 7.65 0 0 1-3.06-.62 7.93 7.93 0 0 1-2.51-1.67A7.88 7.88 0 0 1 .62 4.8a7.93 7.93 0 0 1 1.67-2.51A7.93 7.93 0 0 1 4.8.62a7.93 7.93 0 0 1 8.62 1.67A8.13 8.13 0 0 1 15.1 4.8a7.81 7.81 0 0 1 .61 3.06 7.66 7.66 0 0 1-1.38 4.45l3.83 3.83a1.37 1.37 0 0 1 .41 1zm-7.18-5.75a4.82 4.82 0 0 0 1.47-3.53 4.79 4.79 0 0 0-1.47-3.53 4.82 4.82 0 0 0-3.53-1.47 4.83 4.83 0 0 0-3.54 1.47 4.82 4.82 0 0 0-1.46 3.53 4.85 4.85 0 0 0 1.46 3.53 4.83 4.83 0 0 0 3.54 1.47 4.82 4.82 0 0 0 3.53-1.47z" fill="#fff"/></svg>