<svg data-name="Layer 1" xmlns="http://www.w3.org/2000/svg" viewBox="0 0 33.42 27.14"><path d="M33.42 3.22A14.33 14.33 0 0 1 30 6.77v.89a19.38 19.38 0 0 1-.81 5.5 19.82 19.82 0 0 1-2.45 5.27 20.58 20.58 0 0 1-3.9 4.5 17.31 17.31 0 0 1-5.47 3.1 20.06 20.06 0 0 1-6.85 1.15A19 19 0 0 1 0 24.07a14 14 0 0 0 1.65.08 13.43 13.43 0 0 0 8.51-2.92 6.88 6.88 0 0 1-6.41-4.75 8.79 8.79 0 0 0 1.3.1 6.89 6.89 0 0 0 1.8-.23 6.72 6.72 0 0 1-3.93-2.36 6.64 6.64 0 0 1-1.56-4.36v-.09a6.71 6.71 0 0 0 3.09.87 6.78 6.78 0 0 1-2.22-2.48 6.86 6.86 0 0 1 .1-6.72 19.37 19.37 0 0 0 6.25 5.06 19 19 0 0 0 7.88 2.11 7.18 7.18 0 0 1-.17-1.57 6.61 6.61 0 0 1 2-4.85 6.87 6.87 0 0 1 9.85.16A13.22 13.22 0 0 0 32.49.47a6.67 6.67 0 0 1-3 3.77 13.44 13.44 0 0 0 3.93-1.02z" fill="#333"/></svg>