<svg data-name="Layer 1" xmlns="http://www.w3.org/2000/svg" viewBox="0 0 32.57 32.57"><path d="M32.58 16.28q0 4.86-.11 6.73a9.94 9.94 0 0 1-2.63 6.82 10 10 0 0 1-6.83 2.63q-1.86.1-6.72.11t-6.71-.11a10 10 0 0 1-6.83-2.63 9.94 9.94 0 0 1-2.64-6.82q-.1-1.87-.11-6.73c0-3.23 0-5.48.11-6.72a10 10 0 0 1 2.63-6.83A10 10 0 0 1 9.58.1Q11.44 0 16.3 0t6.72.1a10 10 0 0 1 6.83 2.63 10 10 0 0 1 2.63 6.83c.1 1.24.1 3.49.1 6.72zM17.91 2.91h-5.48c-.51 0-1.19 0-2 .07a15.35 15.35 0 0 0-2.18.21 8.54 8.54 0 0 0-1.52.39 5.56 5.56 0 0 0-3.15 3.06 7.65 7.65 0 0 0-.39 1.51 16.78 16.78 0 0 0-.22 2.19q0 1.28-.06 2V20.06c0 .51 0 1.19.06 2.05a16.79 16.79 0 0 0 .22 2.18 7.76 7.76 0 0 0 .39 1.6 5.43 5.43 0 0 0 1.23 1.87 5.51 5.51 0 0 0 1.87 1.22 8.48 8.48 0 0 0 1.52.4 19 19 0 0 0 2.18.26c.86 0 1.54.06 2 .06h7.72c.51 0 1.19 0 2.05-.06a19 19 0 0 0 2.18-.21 8.48 8.48 0 0 0 1.52-.4 5.61 5.61 0 0 0 1.86-1.22 5.43 5.43 0 0 0 1.23-1.87 7.76 7.76 0 0 0 .39-1.52 16.79 16.79 0 0 0 .25-2.23c0-.86.05-1.54.06-2.05s0-1.25 0-2.24v-1.62-1.62-2.24c0-.51 0-1.19-.06-2a16.78 16.78 0 0 0-.22-2.19 7.65 7.65 0 0 0-.37-1.59 5.43 5.43 0 0 0-1.23-1.87 5.49 5.49 0 0 0-1.86-1.23 8.54 8.54 0 0 0-1.52-.39 15.35 15.35 0 0 0-2.18-.21c-.86 0-1.54-.06-2.05-.07zm4.3 7.46a8 8 0 0 1 2.43 5.91 8.31 8.31 0 0 1-8.35 8.36 8.33 8.33 0 0 1-8.36-8.36 8.33 8.33 0 0 1 8.36-8.35 8.05 8.05 0 0 1 5.92 2.44zm-2.08 9.75a5.43 5.43 0 0 0 0-7.68 5.43 5.43 0 0 0-7.68 0 5.43 5.43 0 0 0 0 7.68 5.43 5.43 0 0 0 7.68 0zm6.23-13.91a2 2 0 0 1 0 2.76 1.94 1.94 0 0 1-2.75 0 1.93 1.93 0 0 1 0-2.76 1.94 1.94 0 0 1 2.75 0z" fill="#333"/></svg>