<svg data-name="Layer 1" xmlns="http://www.w3.org/2000/svg" viewBox="0 0 32.57 32.57"><path d="M32.58 6.1v20.36a6.13 6.13 0 0 1-6.11 6.11H6.11a5.88 5.88 0 0 1-4.31-1.79A5.89 5.89 0 0 1 0 26.46V6.1a5.85 5.85 0 0 1 1.8-4.31A5.84 5.84 0 0 1 6.11 0h20.36a5.84 5.84 0 0 1 4.31 1.79 5.85 5.85 0 0 1 1.8 4.31zM10.25 8.01a2.51 2.51 0 0 0-.77-1.82 2.7 2.7 0 0 0-2-.72 2.8 2.8 0 0 0-2 .72 2.38 2.38 0 0 0-.78 1.82 2.42 2.42 0 0 0 .76 1.82 2.71 2.71 0 0 0 2 .73 2.82 2.82 0 0 0 2-.73 2.43 2.43 0 0 0 .79-1.82zM5.03 27.27h4.9V12.55h-4.9zm17.62 0h4.93v-8.44a7 7 0 0 0-1.55-4.94 5.29 5.29 0 0 0-4.09-1.68 4.93 4.93 0 0 0-4.43 2.48v-2.14h-4.93q.06 1.39 0 14.72h4.9v-8.23a3.5 3.5 0 0 1 .15-1.19 3.34 3.34 0 0 1 .95-1.21 2.4 2.4 0 0 1 1.57-.52q2.46 0 2.46 3.33z" fill="#333"/></svg>